<svg width="39" height="32" viewBox="0 0 39 32" fill="none" xmlns="http://www.w3.org/2000/svg">
<rect width="39" height="32" rx="10" fill="#FFCFA1"/>
<mask id="mask0_149_1320" style="mask-type:alpha" maskUnits="userSpaceOnUse" x="7" y="4" width="25" height="24">
<rect x="7.5" y="4" width="24" height="24" fill="#713A82"/>
</mask>
<g mask="url(#mask0_149_1320)">
<path d="M19.4998 17.4L14.5998 22.3C14.4165 22.4834 14.1831 22.575 13.8998 22.575C13.6165 22.575 13.3831 22.4834 13.1998 22.3C13.0165 22.1167 12.9248 21.8834 12.9248 21.6C12.9248 21.3167 13.0165 21.0834 13.1998 20.9L18.0998 16L13.1998 11.1C13.0165 10.9167 12.9248 10.6834 12.9248 10.4C12.9248 10.1167 13.0165 9.88338 13.1998 9.70005C13.3831 9.51672 13.6165 9.42505 13.8998 9.42505C14.1831 9.42505 14.4165 9.51672 14.5998 9.70005L19.4998 14.6L24.3998 9.70005C24.5831 9.51672 24.8165 9.42505 25.0998 9.42505C25.3831 9.42505 25.6165 9.51672 25.7998 9.70005C25.9831 9.88338 26.0748 10.1167 26.0748 10.4C26.0748 10.6834 25.9831 10.9167 25.7998 11.1L20.8998 16L25.7998 20.9C25.9831 21.0834 26.0748 21.3167 26.0748 21.6C26.0748 21.8834 25.9831 22.1167 25.7998 22.3C25.6165 22.4834 25.3831 22.575 25.0998 22.575C24.8165 22.575 24.5831 22.4834 24.3998 22.3L19.4998 17.4Z" fill="#35273A"/>
</g>
</svg>
